<svg width="32" height="27" viewBox="0 0 32 27" fill="none" xmlns="http://www.w3.org/2000/svg">
<g opacity="0.1">
<path fill-rule="evenodd" clip-rule="evenodd" d="M31.8597 4.21692C27.0878 6.55966 24.7019 9.31235 24.7019 12.4751C26.7358 12.7093 28.4177 13.539 29.7475 14.9642C31.0774 16.3894 31.7423 18.039 31.7423 19.9132C31.7423 21.9046 31.097 23.5835 29.8062 24.9501C28.5155 26.3167 26.8923 27 24.9366 27C22.7462 27 20.8492 26.1117 19.2456 24.3351C17.6419 22.5586 16.8401 20.4013 16.8401 17.8633C16.8401 10.2494 21.1034 4.29503 29.6302 0L31.8597 4.21692ZM15.0196 4.21692C10.2086 6.55966 7.80313 9.31235 7.80313 12.4751C9.87615 12.7093 11.5776 13.539 12.9074 14.9642C14.2373 16.3894 14.9022 18.039 14.9022 19.9132C14.9022 21.9046 14.2471 23.5835 12.9368 24.9501C11.6265 26.3167 9.99349 27 8.03781 27C5.84745 27 3.96024 26.1117 2.37614 24.3351C0.792039 22.5586 0 20.4013 0 17.8633C0 10.2494 4.24377 4.29503 12.7314 0L15.0196 4.21692Z" fill="#7F57F1"/>
</g>
</svg>
